<svg width="21" height="20" viewBox="0 0 21 20" fill="none" xmlns="http://www.w3.org/2000/svg">
<circle cx="10.5" cy="10" r="10" fill="#D9D9D9"/>
<path d="M7.18952 16.104C7.18952 16.1867 7.09677 16.2529 6.97984 16.2529C6.84677 16.2653 6.75403 16.1991 6.75403 16.104C6.75403 16.0213 6.84677 15.9551 6.96371 15.9551C7.08468 15.9427 7.18952 16.0089 7.18952 16.104ZM5.93548 15.9179C5.90726 16.0006 5.9879 16.0957 6.10887 16.1205C6.21371 16.1619 6.33468 16.1205 6.35887 16.0378C6.38306 15.9551 6.30645 15.86 6.18548 15.8228C6.08065 15.7938 5.96371 15.8352 5.93548 15.9179ZM7.71774 15.8476C7.60081 15.8765 7.52016 15.9551 7.53226 16.0502C7.54435 16.1329 7.64919 16.1867 7.77016 16.1577C7.8871 16.1288 7.96774 16.0502 7.95564 15.9675C7.94355 15.8889 7.83468 15.8352 7.71774 15.8476ZM10.371 0C4.77823 0 0.5 4.35477 0.5 10.0908C0.5 14.6772 3.31452 18.6019 7.33468 19.9832C7.85081 20.0783 8.03226 19.7516 8.03226 19.4827C8.03226 19.2263 8.02016 17.812 8.02016 16.9435C8.02016 16.9435 5.19758 17.5638 4.60484 15.7111C4.60484 15.7111 4.14516 14.5076 3.48387 14.1975C3.48387 14.1975 2.56048 13.5482 3.54839 13.5606C3.54839 13.5606 4.55242 13.6433 5.10484 14.6276C5.9879 16.2239 7.46774 15.7649 8.04435 15.4919C8.1371 14.8302 8.39919 14.3712 8.68952 14.0982C6.43548 13.8418 4.16129 13.5068 4.16129 9.52839C4.16129 8.3911 4.46774 7.82039 5.1129 7.09253C5.00806 6.82372 4.66532 5.71538 5.21774 4.28447C6.06048 4.01565 8 5.40107 8 5.40107C8.80645 5.16948 9.67339 5.04955 10.5323 5.04955C11.3911 5.04955 12.2581 5.16948 13.0645 5.40107C13.0645 5.40107 15.004 4.01152 15.8468 4.28447C16.3992 5.71951 16.0565 6.82372 15.9516 7.09253C16.5968 7.82453 16.9919 8.39524 16.9919 9.52839C16.9919 13.5192 14.6169 13.8377 12.3629 14.0982C12.7339 14.4249 13.0484 15.0453 13.0484 16.0171C13.0484 17.4108 13.0363 19.1354 13.0363 19.4745C13.0363 19.7433 13.2218 20.07 13.7339 19.9749C17.7661 18.6019 20.5 14.6772 20.5 10.0908C20.5 4.35477 15.9637 0 10.371 0ZM4.41935 14.2636C4.36694 14.305 4.37903 14.4001 4.44758 14.4787C4.5121 14.5449 4.60484 14.5738 4.65726 14.52C4.70968 14.4787 4.69758 14.3836 4.62903 14.305C4.56452 14.2388 4.47177 14.2099 4.41935 14.2636ZM3.98387 13.9287C3.95565 13.9824 3.99597 14.0486 4.07661 14.0899C4.14113 14.1313 4.22177 14.1189 4.25 14.061C4.27823 14.0072 4.2379 13.9411 4.15726 13.8997C4.07661 13.8749 4.0121 13.8873 3.98387 13.9287ZM5.29032 15.4009C5.22581 15.4547 5.25 15.5788 5.34274 15.6573C5.43548 15.7524 5.55242 15.7649 5.60484 15.6987C5.65726 15.6449 5.63306 15.5209 5.55242 15.4423C5.46371 15.3472 5.34274 15.3348 5.29032 15.4009ZM4.83065 14.793C4.76613 14.8343 4.76613 14.9419 4.83065 15.037C4.89516 15.1321 5.00403 15.1735 5.05645 15.1321C5.12097 15.0783 5.12097 14.9708 5.05645 14.8757C5 14.7806 4.89516 14.7392 4.83065 14.793Z" fill="black"/>
</svg>
