<svg width="20" height="20" viewBox="0 0 20 20" fill="none" xmlns="http://www.w3.org/2000/svg">
<path d="M15.3125 0H4.6875C2.09867 0 0 2.09867 0 4.6875V15.3125C0 17.9013 2.09867 20 4.6875 20H15.3125C17.9013 20 20 17.9013 20 15.3125V4.6875C20 2.09867 17.9013 0 15.3125 0Z" fill="url(#paint0_radial_77_99)"/>
<path d="M15.3125 0H4.6875C2.09867 0 0 2.09867 0 4.6875V15.3125C0 17.9013 2.09867 20 4.6875 20H15.3125C17.9013 20 20 17.9013 20 15.3125V4.6875C20 2.09867 17.9013 0 15.3125 0Z" fill="url(#paint1_radial_77_99)"/>
<path d="M10.0007 2.1875C7.87898 2.1875 7.61266 2.1968 6.77938 2.23469C5.94766 2.27281 5.37992 2.40445 4.8832 2.59766C4.3693 2.79719 3.93344 3.06414 3.49922 3.49852C3.06461 3.93281 2.79766 4.36867 2.5975 4.88234C2.40375 5.37922 2.27195 5.94719 2.23453 6.77852C2.19727 7.61188 2.1875 7.87828 2.1875 10.0001C2.1875 12.1219 2.19688 12.3873 2.23469 13.2206C2.27297 14.0523 2.40461 14.6201 2.59766 15.1168C2.79734 15.6307 3.0643 16.0666 3.49867 16.5008C3.93281 16.9354 4.36867 17.203 4.88219 17.4025C5.3793 17.5957 5.94711 17.7273 6.77867 17.7655C7.61203 17.8034 7.87813 17.8127 9.99977 17.8127C12.1217 17.8127 12.3872 17.8034 13.2205 17.7655C14.0522 17.7273 14.6205 17.5957 15.1177 17.4025C15.6313 17.203 16.0666 16.9354 16.5006 16.5008C16.9352 16.0666 17.2021 15.6307 17.4023 15.117C17.5944 14.6201 17.7262 14.0522 17.7653 13.2208C17.8027 12.3875 17.8125 12.1219 17.8125 10.0001C17.8125 7.87828 17.8027 7.61203 17.7653 6.77867C17.7262 5.94695 17.5944 5.3793 17.4023 4.88258C17.2021 4.36867 16.9352 3.93281 16.5006 3.49852C16.0661 3.06398 15.6315 2.79703 15.1172 2.59773C14.6191 2.40445 14.0511 2.27273 13.2194 2.23469C12.386 2.1968 12.1207 2.1875 9.99828 2.1875H10.0007ZM9.29984 3.59539C9.50789 3.59508 9.74 3.59539 10.0007 3.59539C12.0867 3.59539 12.3339 3.60289 13.1577 3.64031C13.9194 3.67516 14.3328 3.80242 14.6082 3.90938C14.9728 4.05094 15.2327 4.22023 15.506 4.49375C15.7795 4.76719 15.9487 5.02758 16.0906 5.39219C16.1976 5.66719 16.325 6.08063 16.3597 6.84234C16.3971 7.66594 16.4052 7.91328 16.4052 9.99828C16.4052 12.0833 16.3971 12.3307 16.3597 13.1542C16.3248 13.9159 16.1976 14.3294 16.0906 14.6045C15.9491 14.9691 15.7795 15.2287 15.506 15.502C15.2326 15.7754 14.973 15.9446 14.6082 16.0863C14.3331 16.1937 13.9194 16.3206 13.1577 16.3555C12.3341 16.3929 12.0867 16.401 10.0007 16.401C7.91461 16.401 7.66734 16.3929 6.84383 16.3555C6.08211 16.3203 5.66867 16.193 5.39305 16.0861C5.02852 15.9445 4.76805 15.7752 4.49461 15.5018C4.22117 15.2284 4.05195 14.9686 3.91 14.6038C3.80305 14.3287 3.67562 13.9153 3.64094 13.1536C3.60352 12.33 3.59602 12.0827 3.59602 9.99633C3.59602 7.91008 3.60352 7.66398 3.64094 6.84039C3.67578 6.07867 3.80305 5.66523 3.91 5.38984C4.05164 5.02523 4.22117 4.76484 4.49469 4.49141C4.76813 4.21797 5.02852 4.04867 5.39312 3.9068C5.66852 3.79938 6.08211 3.67242 6.84383 3.63742C7.56453 3.60484 7.84383 3.59508 9.29984 3.59344V3.59539ZM14.171 4.89258C13.6534 4.89258 13.2335 5.31211 13.2335 5.82977C13.2335 6.34734 13.6534 6.76727 14.171 6.76727C14.6886 6.76727 15.1085 6.34734 15.1085 5.82977C15.1085 5.31219 14.6886 4.89227 14.171 4.89227V4.89258ZM10.0007 5.98797C7.78508 5.98797 5.98867 7.78438 5.98867 10.0001C5.98867 12.2158 7.78508 14.0113 10.0007 14.0113C12.2164 14.0113 14.0122 12.2158 14.0122 10.0001C14.0122 7.78445 12.2163 5.98797 10.0005 5.98797H10.0007ZM10.0007 7.39586C11.4389 7.39586 12.6049 8.56172 12.6049 10.0001C12.6049 11.4383 11.4389 12.6043 10.0007 12.6043C8.56242 12.6043 7.39656 11.4383 7.39656 10.0001C7.39656 8.56172 8.56242 7.39586 10.0007 7.39586Z" fill="white"/>
<defs>
<radialGradient id="paint0_radial_77_99" cx="0" cy="0" r="1" gradientUnits="userSpaceOnUse" gradientTransform="translate(5.3125 21.5404) rotate(-90) scale(19.8215 18.4355)">
<stop stop-color="#FFDD55"/>
<stop offset="0.1" stop-color="#FFDD55"/>
<stop offset="0.5" stop-color="#FF543E"/>
<stop offset="1" stop-color="#C837AB"/>
</radialGradient>
<radialGradient id="paint1_radial_77_99" cx="0" cy="0" r="1" gradientUnits="userSpaceOnUse" gradientTransform="translate(-3.35008 1.4407) rotate(78.681) scale(8.86031 36.5225)">
<stop stop-color="#3771C8"/>
<stop offset="0.128" stop-color="#3771C8"/>
<stop offset="1" stop-color="#6600FF" stop-opacity="0"/>
</radialGradient>
</defs>
</svg>
