<svg width="20" height="20" viewBox="0 0 20 20" fill="none" xmlns="http://www.w3.org/2000/svg">
<g clip-path="url(#clip0_77_136)">
<path d="M15.3125 0H4.6875C2.09867 0 0 2.09867 0 4.6875V15.3125C0 17.9013 2.09867 20 4.6875 20H15.3125C17.9013 20 20 17.9013 20 15.3125V4.6875C20 2.09867 17.9013 0 15.3125 0Z" fill="white"/>
<path d="M15.3125 0H4.6875C2.09867 0 0 2.09867 0 4.6875V15.3125C0 17.9013 2.09867 20 4.6875 20H15.3125C17.9013 20 20 17.9013 20 15.3125V4.6875C20 2.09867 17.9013 0 15.3125 0Z" fill="#0A66C2"/>
<path d="M14.4309 17.0066H16.7176C16.8004 17.0066 16.8799 16.9737 16.9385 16.9151C16.9971 16.8566 17.0301 16.7771 17.0301 16.6942L17.0312 11.8628C17.0312 9.33758 16.4871 7.39656 13.5361 7.39656C12.4143 7.35484 11.3564 7.93313 10.7855 8.89875C10.7828 8.90344 10.7785 8.90709 10.7734 8.90914C10.7684 8.91119 10.7628 8.91153 10.7575 8.9101C10.7523 8.90867 10.7476 8.90556 10.7443 8.90124C10.7409 8.89692 10.7391 8.89163 10.7391 8.88617V7.94219C10.7391 7.85931 10.7061 7.77982 10.6475 7.72122C10.5889 7.66261 10.5094 7.62969 10.4266 7.62969H8.25648C8.1736 7.62969 8.09412 7.66261 8.03551 7.72122C7.97691 7.77982 7.94398 7.85931 7.94398 7.94219V16.6937C7.94398 16.7766 7.97691 16.8561 8.03551 16.9147C8.09412 16.9733 8.1736 17.0062 8.25648 17.0062H10.543C10.6259 17.0062 10.7054 16.9733 10.764 16.9147C10.8226 16.8561 10.8555 16.7766 10.8555 16.6937V12.3677C10.8555 11.1445 11.0876 9.95992 12.6041 9.95992C14.099 9.95992 14.1184 11.3596 14.1184 12.447V16.6941C14.1184 16.777 14.1513 16.8565 14.2099 16.9151C14.2685 16.9737 14.348 17.0066 14.4309 17.0066ZM2.96875 4.65836C2.96875 5.58531 3.7318 6.34797 4.65875 6.34797C5.58547 6.34789 6.34805 5.58477 6.34805 4.65805C6.34789 3.73133 5.58523 2.96875 4.65844 2.96875C3.73141 2.96875 2.96875 3.73148 2.96875 4.65836ZM3.51242 17.0066H5.80203C5.88491 17.0066 5.9644 16.9737 6.023 16.9151C6.08161 16.8565 6.11453 16.777 6.11453 16.6941V7.94219C6.11453 7.85931 6.08161 7.77982 6.023 7.72122C5.9644 7.66261 5.88491 7.62969 5.80203 7.62969H3.51242C3.42954 7.62969 3.35006 7.66261 3.29145 7.72122C3.23285 7.77982 3.19992 7.85931 3.19992 7.94219V16.6941C3.19992 16.777 3.23285 16.8565 3.29145 16.9151C3.35006 16.9737 3.42954 17.0066 3.51242 17.0066Z" fill="white"/>
</g>
<defs>
<clipPath id="clip0_77_136">
<rect width="20" height="20" fill="white"/>
</clipPath>
</defs>
</svg>
