<svg width="20" height="20" viewBox="0 0 20 20" fill="none" xmlns="http://www.w3.org/2000/svg">
<path d="M15.3125 0H4.6875C2.09867 0 0 2.09867 0 4.6875V15.3125C0 17.9013 2.09867 20 4.6875 20H15.3125C17.9013 20 20 17.9013 20 15.3125V4.6875C20 2.09867 17.9013 0 15.3125 0Z" fill="white"/>
<path d="M15.3125 0H4.6875C2.09867 0 0 2.09867 0 4.6875V15.3125C0 17.9013 2.09867 20 4.6875 20H15.3125C17.9013 20 20 17.9013 20 15.3125V4.6875C20 2.09867 17.9013 0 15.3125 0Z" fill="#1D9BF0"/>
<path d="M15.5916 7.14148C15.6002 7.26547 15.6002 7.38945 15.6002 7.51461C15.6002 11.3269 12.698 15.7236 7.39117 15.7236V15.7212C5.82345 15.7235 4.28821 15.2745 2.96875 14.4279C3.19672 14.4553 3.42578 14.469 3.65547 14.4695C4.95482 14.4705 6.21678 14.0347 7.23859 13.2321C6.63656 13.2207 6.05313 13.0215 5.56988 12.6623C5.08662 12.3031 4.7277 11.8018 4.54328 11.2286C4.97553 11.3119 5.42114 11.2949 5.84578 11.1789C4.49984 10.9069 3.53148 9.72437 3.53148 8.35093V8.31437C3.93273 8.53786 4.38178 8.6617 4.84086 8.67547C3.5732 7.8282 3.18242 6.14172 3.94789 4.82312C4.67221 5.71445 5.57593 6.44344 6.60035 6.96273C7.62477 7.48203 8.74697 7.78002 9.89406 7.83734C9.77969 7.34503 9.79659 6.83131 9.94305 6.34758C10.0895 5.86384 10.3604 5.42704 10.7287 5.08086C11.8907 3.98851 13.7183 4.04453 14.8106 5.20593C15.4567 5.07837 16.0763 4.84151 16.6427 4.50554C16.4273 5.17356 15.9766 5.7406 15.3745 6.10117C15.9464 6.03379 16.5049 5.88069 17.0312 5.64703C16.6441 6.22687 16.1565 6.7329 15.5916 7.14148Z" fill="white"/>
</svg>
