<svg width="100%" height="100%" viewBox="0 0 584 572" fill="none" xmlns="http://www.w3.org/2000/svg">
<mask id="mask0_630_322" style="mask-type:luminance" maskUnits="userSpaceOnUse" x="0" y="0" width="584" height="572">
<path d="M584 0.666687H0V571.333H584V0.666687Z" fill="white"/>
</mask>
<g mask="url(#mask0_630_322)">
<path d="M551.156 414.948H550.937C550.609 414.953 550.396 414.802 550.302 414.484C532.968 365.188 512.359 317.297 488.474 270.813C461.203 258.24 434.448 244.583 408.203 229.849L488.458 270.917C476.026 246.729 462.755 222.964 448.64 199.62C420.161 189.547 392.088 178.354 364.427 166.037L448.64 199.62C438.963 183.656 428.932 167.932 418.557 152.453C393.161 137.146 367.734 120.995 343.604 103.74L418.468 152.339C387.312 105.964 352.948 62.099 315.375 20.7448C315.244 20.6094 315.177 20.448 315.177 20.2552C315.177 20.0677 315.244 19.9063 315.375 19.7709C315.505 19.6355 315.666 19.5677 315.854 19.5677C316.041 19.5677 316.203 19.6355 316.333 19.7709C358.047 65.6928 395.797 114.662 429.593 166.677L434.255 76.4532C433.906 106.583 432.359 136.672 429.619 166.719C455.323 206.234 478.557 247.146 499.317 289.464L503.135 215.203C502.859 240.01 501.593 264.776 499.349 289.505C519.234 330.01 536.656 371.542 551.619 414.104C551.677 414.287 551.661 414.458 551.567 414.625C551.474 414.792 551.338 414.901 551.156 414.948ZM389.474 39.3073L404.182 128.802C400.463 98.8021 395.557 68.9115 389.474 39.3073ZM466.984 228.177C469.724 198.073 471.276 167.875 471.64 137.594L466.984 228.177Z" fill="#59AD4B"/>
<mask id="mask1_630_322" style="mask-type:luminance" maskUnits="userSpaceOnUse" x="34" y="1" width="489" height="449">
<path d="M34.667 1.86462H522.667V450H34.667V1.86462Z" fill="white"/>
</mask>
<g mask="url(#mask1_630_322)">
<path d="M281.792 211.927C290.922 283.615 289.136 356.203 287.339 428.443C271.756 436.469 252.052 441.505 236.516 449.5C204.75 439.906 173.73 428.307 143.464 414.708C113.193 401.104 83.9274 385.615 55.6618 368.234C44.6566 361.458 32.3024 350.818 35.5993 338.313C37.516 331.052 44.568 326.104 51.9014 324.583C59.2347 323.057 66.8285 324.349 74.1618 325.917C94.6253 330.307 114.443 336.688 133.62 345.057C152.802 353.422 170.959 363.609 188.089 375.62C147.839 346.802 107.198 316.63 78.5212 276.271C71.2608 266.115 64.8128 254.839 64.2451 242.443C63.6774 230.052 70.8545 216.542 82.917 213.651C96.5108 210.401 109.188 220.906 119.058 230.776C151.276 262.932 181.881 296.609 210.87 331.792C203.355 321.87 196.464 311.531 190.198 300.771C183.933 290.01 178.344 278.917 173.422 267.479C168.506 256.042 164.297 244.349 160.797 232.406C157.297 220.458 154.532 208.344 152.5 196.063C150.453 183.422 151.047 167.198 162.667 161.99C169.547 158.927 177.912 161.406 183.703 166.229C189.5 171.047 193.261 177.839 196.771 184.495C216.995 223 233.261 263.109 245.573 304.818C236.151 271.771 233.308 236.828 235.73 202.563C236.443 192.406 238.766 180.651 247.855 176.068C256.568 171.714 267.589 176.557 273.282 184.427C278.974 192.292 280.568 202.302 281.792 211.927ZM374.151 90.3855C374.318 89.0105 374.448 87.6355 374.542 86.2553C374.631 84.875 374.688 83.4896 374.709 82.1042C374.73 80.724 374.714 79.3386 374.662 77.9532C374.61 76.573 374.516 75.1928 374.391 73.8125C374.266 72.4323 374.105 71.0573 373.907 69.6875C373.714 68.3178 373.48 66.9532 373.209 65.599C372.938 64.2396 372.636 62.8907 372.297 61.5469C371.953 60.2032 371.578 58.875 371.172 57.5521C370.761 56.2292 370.318 54.9167 369.839 53.6198C369.36 52.3177 368.844 51.0365 368.302 49.7605C367.756 48.4896 367.172 47.2344 366.563 45.9896C365.948 44.75 365.308 43.5261 364.631 42.3178C363.953 41.1094 363.245 39.9219 362.506 38.75C361.766 37.5782 360.995 36.4271 360.198 35.2969C359.396 34.1667 358.568 33.0573 357.709 31.974C356.855 30.8855 355.969 29.823 355.052 28.7813C354.141 27.7396 353.198 26.724 352.235 25.7344C351.266 24.7448 350.271 23.7813 349.256 22.8386C348.24 21.9011 347.198 20.9896 346.131 20.1042C345.063 19.2188 343.98 18.3646 342.865 17.5365C341.756 16.7084 340.625 15.9115 339.474 15.1459C338.318 14.375 337.146 13.6407 335.959 12.9323C334.766 12.2292 333.558 11.5521 332.328 10.9115C331.105 10.2657 329.86 9.65629 328.605 9.07817C327.344 8.50004 326.068 7.95837 324.782 7.44796C323.495 6.93233 322.198 6.45837 320.886 6.01567C319.573 5.57296 318.25 5.16671 316.917 4.79171C315.584 4.41671 314.24 4.07817 312.886 3.77608C311.537 3.474 310.177 3.20837 308.813 2.974C307.448 2.74483 306.073 2.54691 304.698 2.38546C303.323 2.22921 301.943 2.10421 300.563 2.01567C299.183 1.92712 297.797 1.88025 296.412 1.86462C306.256 40.974 338.417 71.5209 374.151 90.3855ZM466.433 228.63C467.49 227.734 468.521 226.813 469.532 225.865C470.542 224.917 471.526 223.948 472.485 222.948C473.443 221.948 474.375 220.922 475.282 219.875C476.188 218.828 477.063 217.755 477.912 216.662C478.761 215.568 479.578 214.453 480.37 213.313C481.157 212.177 481.917 211.021 482.646 209.844C483.375 208.667 484.073 207.469 484.74 206.255C485.407 205.042 486.042 203.813 486.641 202.563C487.245 201.318 487.813 200.057 488.349 198.781C488.886 197.5 489.386 196.214 489.855 194.912C490.323 193.604 490.756 192.292 491.157 190.964C491.552 189.641 491.917 188.307 492.245 186.958C492.573 185.615 492.865 184.26 493.125 182.901C493.381 181.542 493.605 180.177 493.792 178.802C493.974 177.432 494.125 176.057 494.24 174.677C494.355 173.297 494.427 171.917 494.469 170.531C494.511 169.146 494.516 167.76 494.485 166.38C494.453 164.995 494.386 163.615 494.282 162.234C494.177 160.849 494.037 159.474 493.86 158.099C493.683 156.729 493.469 155.359 493.219 154C492.974 152.635 492.688 151.281 492.37 149.938C492.047 148.589 491.693 147.25 491.302 145.922C490.912 144.594 490.49 143.276 490.032 141.969C489.573 140.662 489.078 139.37 488.552 138.089C488.026 136.807 487.464 135.542 486.87 134.292C486.276 133.042 485.651 131.807 484.995 130.589C484.334 129.37 483.646 128.172 482.922 126.99C482.203 125.807 481.448 124.646 480.667 123.505C479.886 122.359 479.073 121.24 478.23 120.141C477.391 119.042 476.521 117.964 475.625 116.906C474.724 115.854 473.802 114.823 472.849 113.818C471.896 112.813 470.917 111.833 469.917 110.88C450.443 146.214 453.131 190.521 466.433 228.63ZM429.068 167.458C430.125 166.568 431.162 165.646 432.172 164.698C433.177 163.75 434.162 162.776 435.12 161.776C436.078 160.776 437.011 159.755 437.917 158.703C438.818 157.656 439.698 156.583 440.547 155.49C441.391 154.396 442.214 153.281 443 152.141C443.792 151.005 444.552 149.849 445.282 148.672C446.011 147.495 446.709 146.297 447.37 145.083C448.037 143.87 448.672 142.641 449.276 141.391C449.875 140.146 450.443 138.885 450.98 137.609C451.516 136.328 452.016 135.042 452.485 133.74C452.948 132.432 453.386 131.12 453.782 129.792C454.183 128.469 454.542 127.13 454.87 125.787C455.198 124.443 455.495 123.089 455.75 121.729C456.006 120.37 456.23 119.005 456.417 117.63C456.599 116.26 456.75 114.885 456.865 113.505C456.974 112.125 457.052 110.745 457.094 109.359C457.136 107.974 457.141 106.594 457.11 105.208C457.078 103.823 457.006 102.443 456.901 101.063C456.797 99.6823 456.657 98.3021 456.48 96.9323C456.302 95.5573 456.094 94.1875 455.844 92.8282C455.594 91.4688 455.313 90.1094 454.99 88.7657C454.672 87.4167 454.318 86.0782 453.927 84.75C453.537 83.4219 453.11 82.1042 452.651 80.8021C452.193 79.4948 451.703 78.2032 451.172 76.9219C450.646 75.6407 450.089 74.375 449.495 73.125C448.901 71.875 448.276 70.6407 447.615 69.4219C446.959 68.2032 446.266 67.0052 445.547 65.823C444.823 64.6407 444.073 63.4792 443.292 62.3334C442.511 61.1928 441.698 60.073 440.855 58.9688C440.016 57.8698 439.146 56.7969 438.245 55.7396C437.349 54.6875 436.422 53.6563 435.474 52.6511C434.521 51.6459 433.542 50.6667 432.542 49.7084C413.068 85.0469 415.813 129.354 429.068 167.458ZM418.787 66.6303C417.735 61.1771 416.136 55.8959 413.98 50.7761C411.828 45.6563 409.177 40.8125 406.016 36.2448C402.86 31.6771 399.266 27.4844 395.235 23.6615C391.203 19.8386 386.823 16.474 382.094 13.5625C370.584 52.2344 382.693 94.9428 403.761 129.365C407.115 124.943 409.98 120.219 412.355 115.203C414.73 110.182 416.563 104.974 417.86 99.573C419.151 94.1719 419.875 88.698 420.032 83.1511C420.188 77.599 419.776 72.0938 418.787 66.6303ZM385.917 215.073C386.24 216.422 386.599 217.755 386.995 219.083C387.391 220.412 387.823 221.724 388.287 223.031C388.756 224.333 389.256 225.625 389.787 226.901C390.318 228.182 390.886 229.443 391.485 230.693C392.084 231.938 392.714 233.172 393.381 234.385C394.042 235.599 394.735 236.797 395.464 237.979C396.193 239.156 396.948 240.313 397.735 241.453C398.521 242.594 399.339 243.708 400.188 244.807C401.032 245.901 401.907 246.974 402.808 248.026C403.714 249.078 404.641 250.104 405.599 251.104C406.552 252.104 407.537 253.078 408.542 254.031C409.552 254.979 410.584 255.901 411.641 256.797C412.693 257.693 413.776 258.563 414.875 259.401C415.98 260.24 417.099 261.052 418.245 261.833C419.391 262.609 420.552 263.359 421.735 264.078C422.922 264.802 424.12 265.49 425.344 266.146C426.563 266.802 427.797 267.422 429.052 268.016C430.302 268.604 431.568 269.167 432.849 269.688C434.136 270.214 435.427 270.703 436.735 271.162C438.042 271.62 439.36 272.042 440.693 272.432C442.021 272.818 443.36 273.172 444.709 273.49C446.058 273.807 447.412 274.089 448.776 274.333C450.141 274.583 451.506 274.792 452.881 274.969C454.256 275.141 455.636 275.281 457.016 275.38C458.396 275.484 459.782 275.552 461.167 275.578C462.552 275.609 463.933 275.604 465.318 275.563C466.703 275.521 468.089 275.438 469.469 275.323C470.849 275.208 472.224 275.057 473.594 274.87C474.969 274.682 476.334 274.458 477.698 274.198C479.058 273.943 480.412 273.646 481.756 273.318C483.099 272.984 484.438 272.62 485.761 272.219C487.089 271.818 488.401 271.385 489.709 270.917C463.292 240.443 426.282 215.87 385.917 215.073ZM356.641 141.557C361.235 144.682 366.099 147.302 371.235 149.417C376.37 151.531 381.667 153.094 387.131 154.109C392.594 155.125 398.099 155.568 403.651 155.438C409.209 155.307 414.688 154.609 420.094 153.339C397.198 120.12 363.089 91.6928 323.058 86.4844C323.797 91.9844 325.094 97.3542 326.948 102.583C328.802 107.818 331.172 112.802 334.063 117.542C336.953 122.281 340.302 126.677 344.105 130.719C347.912 134.766 352.089 138.38 356.641 141.557ZM501.688 193.031C485.526 222.328 487.802 259.063 498.782 290.667C499.662 289.927 500.516 289.162 501.355 288.375C502.193 287.594 503.006 286.787 503.802 285.958C504.599 285.125 505.37 284.276 506.12 283.412C506.87 282.542 507.599 281.651 508.302 280.745C509.006 279.839 509.683 278.912 510.339 277.969C510.995 277.026 511.625 276.068 512.23 275.094C512.834 274.115 513.412 273.125 513.964 272.12C514.521 271.109 515.047 270.094 515.542 269.057C516.042 268.026 516.516 266.979 516.959 265.917C517.401 264.859 517.818 263.792 518.209 262.708C518.594 261.63 518.953 260.542 519.287 259.443C519.615 258.344 519.917 257.234 520.188 256.12C520.464 255.005 520.709 253.88 520.922 252.755C521.136 251.625 521.318 250.495 521.474 249.354C521.625 248.219 521.75 247.078 521.844 245.932C521.938 244.792 522.006 243.646 522.037 242.495C522.073 241.349 522.073 240.203 522.047 239.052C522.021 237.906 521.969 236.76 521.881 235.615C521.792 234.469 521.677 233.328 521.532 232.193C521.386 231.052 521.209 229.917 521.006 228.787C520.797 227.662 520.563 226.537 520.297 225.417C520.032 224.302 519.74 223.193 519.417 222.089C519.094 220.99 518.74 219.896 518.36 218.813C517.98 217.729 517.573 216.656 517.136 215.599C516.698 214.537 516.235 213.484 515.74 212.448C515.25 211.412 514.73 210.385 514.183 209.375C513.641 208.365 513.068 207.37 512.469 206.391C511.87 205.412 511.25 204.448 510.599 203.5C509.948 202.552 509.276 201.625 508.578 200.714C507.881 199.797 507.162 198.906 506.417 198.031C505.672 197.156 504.907 196.302 504.115 195.469C503.328 194.635 502.516 193.823 501.688 193.031ZM449.412 199.313C420.37 171.349 381.167 150.339 340.933 153.24C341.381 154.547 341.86 155.844 342.375 157.13C342.891 158.417 343.443 159.688 344.026 160.943C344.61 162.198 345.224 163.438 345.87 164.662C346.521 165.885 347.198 167.094 347.912 168.281C348.62 169.469 349.365 170.635 350.136 171.787C350.907 172.932 351.709 174.063 352.542 175.172C353.375 176.276 354.235 177.359 355.12 178.422C356.011 179.484 356.927 180.521 357.87 181.537C358.813 182.552 359.782 183.542 360.776 184.5C361.776 185.464 362.792 186.401 363.839 187.313C364.881 188.219 365.948 189.104 367.042 189.953C368.131 190.807 369.245 191.635 370.381 192.427C371.511 193.224 372.667 193.99 373.839 194.724C375.016 195.458 376.209 196.162 377.417 196.833C378.631 197.505 379.86 198.146 381.105 198.75C382.349 199.359 383.605 199.932 384.881 200.474C386.157 201.016 387.443 201.526 388.745 202C390.047 202.474 391.36 202.912 392.688 203.318C394.011 203.724 395.344 204.094 396.688 204.427C398.032 204.76 399.386 205.063 400.745 205.328C402.105 205.589 403.469 205.818 404.844 206.01C406.214 206.203 407.589 206.359 408.969 206.479C410.349 206.599 411.735 206.682 413.115 206.734C414.5 206.781 415.886 206.792 417.271 206.766C418.657 206.74 420.042 206.682 421.422 206.583C422.802 206.484 424.183 206.349 425.558 206.182C426.933 206.01 428.302 205.807 429.667 205.563C431.026 205.323 432.386 205.047 433.735 204.734C435.084 204.422 436.422 204.073 437.756 203.688C439.089 203.307 440.407 202.885 441.714 202.432C443.026 201.984 444.323 201.495 445.605 200.974C446.891 200.453 448.157 199.901 449.412 199.313Z" fill="#30833F"/>
</g>
<path d="M54.2139 340.719C113.276 358.656 169.818 382.568 223.823 412.453L54.2139 340.719ZM85.1826 239.135L234.032 408.26C213.032 376.932 190.073 347.109 165.157 318.792C140.24 290.474 113.584 263.901 85.1826 239.078V239.135ZM253.896 398.188C233.724 323.786 208.073 251.323 176.938 180.797L253.896 398.188ZM255.521 188.505L272.323 396.432C271.959 326.677 266.36 257.349 255.521 188.443V188.505Z" fill="#59AD4B"/>
<mask id="mask2_630_322" style="mask-type:luminance" maskUnits="userSpaceOnUse" x="4" y="170" width="579" height="400">
<path d="M4 170H582.526V569.865H4V170Z" fill="white"/>
</mask>
<g mask="url(#mask2_630_322)">
<path d="M8.71891 569.865C7.86995 568.109 7.1512 566.302 6.56266 564.443C5.97412 562.583 5.52099 560.693 5.19807 558.771C4.88036 556.849 4.69807 554.917 4.6512 552.964C4.60953 551.016 4.70328 549.073 4.93766 547.141C5.16682 545.203 5.53662 543.297 6.04182 541.412C6.54703 539.531 7.18245 537.693 7.94807 535.901C8.71891 534.109 9.60953 532.38 10.6199 530.714C11.6356 529.052 12.7606 527.464 14.0002 525.958C15.2397 524.453 16.5835 523.047 18.021 521.734C19.4637 520.417 20.9897 519.214 22.5991 518.115C24.2137 517.021 25.896 516.042 27.646 515.188C29.4012 514.328 31.2033 513.604 33.0575 513C34.9168 512.401 36.8022 511.938 38.7241 511.604C40.646 511.276 42.5835 511.083 44.5314 511.026C46.4845 510.974 48.4272 511.057 50.3647 511.276C52.3022 511.5 54.2137 511.859 56.0991 512.354C37.9481 473.172 51.745 425.281 86.7502 399.927C121.761 374.578 174.646 377.901 206.24 407.417C208.912 392.266 227.703 382.469 241.479 389.333C229.354 365.578 237.313 335.146 254.36 314.641C271.406 294.135 298.49 283.38 325.162 282.948C347.13 282.599 370.537 289.781 383.807 307.198C377.146 293.771 382.776 275.052 394.698 265.969C406.62 256.885 424.959 257.568 436.156 267.536C438.188 233.651 455.235 200.781 484.61 183.755C488.302 181.667 492.104 179.807 496.021 178.177C499.938 176.547 503.943 175.156 508.026 174.01C512.11 172.865 516.25 171.969 520.443 171.318C524.636 170.672 528.849 170.276 533.094 170.141C537.334 170 541.568 170.12 545.792 170.49C550.021 170.865 554.209 171.49 558.36 172.37C562.511 173.245 566.594 174.37 570.61 175.74C574.62 177.115 578.542 178.719 582.36 180.563C580.906 216.844 582.245 251.875 580.906 288.13V569.37H564.125L8.71891 569.865Z" fill="#4D9B44"/>
</g>
<mask id="mask3_630_322" style="mask-type:luminance" maskUnits="userSpaceOnUse" x="158" y="346" width="425" height="224">
<path d="M158.667 346H582.526V569.865H158.667V346Z" fill="white"/>
</mask>
<g mask="url(#mask3_630_322)">
<path d="M168.953 569.354C157.333 556.786 156.438 536.458 164.901 521.625C173.365 506.797 189.859 497.495 206.823 495.417C223.781 493.344 241.089 497.839 256.292 505.646C256.198 502.599 256.297 499.552 256.583 496.51C256.875 493.474 257.349 490.464 258.016 487.484C258.682 484.505 259.531 481.578 260.563 478.703C261.599 475.828 262.807 473.031 264.188 470.307C265.573 467.589 267.12 464.964 268.828 462.432C270.542 459.906 272.406 457.495 274.422 455.198C276.432 452.901 278.583 450.74 280.87 448.714C283.156 446.687 285.557 444.812 288.078 443.089C290.651 441.359 293.318 439.802 296.083 438.406C298.844 437.01 301.688 435.786 304.599 434.74C307.516 433.698 310.484 432.833 313.505 432.151C316.531 431.474 319.583 430.979 322.661 430.677C325.745 430.375 328.839 430.26 331.932 430.338C335.031 430.417 338.109 430.687 341.172 431.141C344.234 431.599 347.26 432.245 350.245 433.073C353.229 433.906 356.151 434.917 359.01 436.104C361.115 427.078 368.026 418.823 377.099 416.922C378.24 416.698 379.385 416.557 380.547 416.495C381.703 416.432 382.859 416.448 384.016 416.547C385.172 416.646 386.318 416.823 387.448 417.078C388.578 417.338 389.688 417.667 390.771 418.078C391.854 418.49 392.906 418.974 393.927 419.526C394.943 420.083 395.917 420.708 396.849 421.401C397.781 422.088 398.656 422.844 399.484 423.656C400.313 424.469 401.078 425.333 401.786 426.255C409.828 401.146 429.547 379.812 454.422 371.021C457.536 369.948 460.703 369.052 463.922 368.333C467.141 367.615 470.391 367.083 473.667 366.734C476.943 366.385 480.234 366.219 483.526 366.24C486.823 366.266 490.109 366.469 493.38 366.865C496.656 367.26 499.896 367.833 503.104 368.594C506.313 369.354 509.469 370.292 512.568 371.406C515.672 372.526 518.698 373.812 521.656 375.271C524.609 376.729 527.474 378.349 530.245 380.135C530.057 368.276 537.505 355.115 548.266 350.005C549.609 349.391 550.99 348.87 552.406 348.443C553.823 348.016 555.266 347.693 556.724 347.463C558.188 347.24 559.661 347.115 561.141 347.094C562.62 347.073 564.089 347.156 565.557 347.338C567.026 347.521 568.474 347.802 569.901 348.187C571.333 348.573 572.729 349.052 574.089 349.63C575.448 350.208 576.766 350.88 578.036 351.641C579.302 352.401 580.51 353.245 581.661 354.172C581.661 355.755 582.375 356.479 582.375 358.062V569.182L168.953 569.354Z" fill="#205732"/>
</g>
</g>
</svg>
