<svg width="100%" height="100%" viewBox="0 0 731 324" fill="none" xmlns="http://www.w3.org/2000/svg">
<mask id="mask0_630_350" style="mask-type:luminance" maskUnits="userSpaceOnUse" x="0" y="0" width="731" height="324">
<path d="M730.667 0H0V324H730.667V0Z" fill="white"/>
</mask>
<g mask="url(#mask0_630_350)">
<mask id="mask1_630_350" style="mask-type:luminance" maskUnits="userSpaceOnUse" x="0" y="0" width="380" height="144">
<path d="M0.515625 0.8125H380V144H0.515625V0.8125Z" fill="white"/>
</mask>
<g mask="url(#mask1_630_350)">
<path fill-rule="evenodd" clip-rule="evenodd" d="M0.515625 55.0625V1.1875H263.13C263.13 1.1875 323.016 31.6667 329.589 53.2083C329.589 53.2083 317.521 62.401 289.313 65.026C289.313 65.026 306.406 68.974 337.646 59.2656C337.646 59.2656 377.052 94.1719 379.146 140.932C379.146 140.932 365.484 144.328 336.583 143.281L326.349 125.938L330.813 142.51C330.813 142.51 254.349 144.12 212.818 133.589C212.818 133.589 204.953 124.911 196.542 90.776L199.766 129.901C199.766 129.901 185.797 130.417 182.396 123.849C179 117.276 169.51 80.2604 169.51 80.2604L173.198 121.74C173.198 121.74 66.8646 100.224 0.515625 55.0625Z" fill="#4D9B44"/>
</g>
<mask id="mask2_630_350" style="mask-type:luminance" maskUnits="userSpaceOnUse" x="17" y="0" width="714" height="322">
<path d="M17.333 0.8125H730.515V321.813H17.333V0.8125Z" fill="white"/>
</mask>
<g mask="url(#mask2_630_350)">
<path fill-rule="evenodd" clip-rule="evenodd" d="M18.125 58.651L68.8958 1.1875H100.844C80.3021 28.0573 18.125 58.651 18.125 58.651ZM199.167 1.33333L156.958 1.28125C156.958 1.28125 87.4063 115.99 75.8854 178.063C75.8854 178.063 158.021 104.12 199.167 1.33333ZM245.021 1.33333H225.688C225.688 1.33333 162.13 214.901 154.797 257.068C154.797 257.104 241.188 173.469 245.021 1.38021V1.33333ZM298.672 1.33333H283.594C283.594 1.33333 244.927 111.833 239.901 252.948C239.901 253.042 294.771 228.458 298.672 1.44271V1.33333ZM354.771 14.2135C354.771 14.2135 389.75 32.375 390.911 55.8333C392.068 79.2917 393.068 257.198 404.443 308.464C404.443 308.464 431.156 224.125 413.156 104.734L402.958 46.2865C402.958 46.2865 414.401 61.375 424.016 90.8542C433.635 120.339 511.245 321.458 511.245 321.458C511.245 321.458 514.464 228.073 434.906 70.5521C434.906 70.5521 525.26 223.224 580.651 258.26C580.651 258.26 550.667 170.813 479.536 103.219C479.536 103.219 635.026 223.339 673.578 229.391C673.578 229.391 595.875 140.109 574.193 127.953C552.505 115.797 460.266 61.5833 460.266 61.5833C460.266 61.5833 646.031 85.849 730.469 70.875C730.469 70.875 595.391 39.974 528.432 39.2969C461.474 38.6198 409.599 39.1719 409.599 39.1719C409.599 39.1719 422.922 29.5104 450.635 28.9635C478.344 28.4115 579.135 18.3646 617.802 1.79687L515.833 1.6875C515.833 1.6875 451.245 5.51563 401.802 21.1354C401.802 21.1354 375.281 20.1719 369.87 10.849L360.203 1.51042H328.234C347.443 105.042 296.771 253.318 318.828 311.026C332.62 188.089 374.203 153.406 354.771 14.3906V14.2135Z" fill="#205732"/>
</g>
</g>
</svg>
