<svg width="292" height="344" viewBox="0 0 292 344" fill="none" xmlns="http://www.w3.org/2000/svg">
<g opacity="0.5">
<path fill-rule="evenodd" clip-rule="evenodd" d="M-95.6588 5.20001C-95.6588 -74.9917 -30.4451 -140 50 -140C130.445 -140 195.659 -74.9917 195.659 5.20001V198.8C195.659 278.992 130.445 344 50 344C-30.4451 344 -95.6588 278.992 -95.6588 198.8V5.20001ZM-47.1058 186.7C-47.1058 240.161 -3.63006 283.5 50 283.5C103.63 283.5 147.106 240.161 147.106 186.7V17.3C147.106 -36.1612 103.63 -79.5 50 -79.5C-3.63006 -79.5 -47.1058 -36.1612 -47.1058 17.3V186.7Z" fill="url(#paint0_linear_254_95)"/>
<path fill-rule="evenodd" clip-rule="evenodd" d="M-46.8 247.659C-126.992 247.659 -192 182.445 -192 102C-192 21.5549 -126.992 -43.6588 -46.8 -43.6588H146.8C226.992 -43.6588 292 21.5549 292 102C292 182.445 226.992 247.659 146.8 247.659L-46.8 247.659ZM134.7 199.106C188.161 199.106 231.5 155.63 231.5 102C231.5 48.3699 188.161 4.89418 134.7 4.89418L-34.7 4.89418C-88.1612 4.89418 -131.5 48.3699 -131.5 102C-131.5 155.63 -88.1612 199.106 -34.7 199.106L134.7 199.106Z" fill="url(#paint1_linear_254_95)"/>
</g>
<defs>
<linearGradient id="paint0_linear_254_95" x1="49.9984" y1="39.2553" x2="19.8086" y2="349.48" gradientUnits="userSpaceOnUse">
<stop stop-color="#FFCACA"/>
<stop offset="1" stop-color="#CED8E1"/>
</linearGradient>
<linearGradient id="paint1_linear_254_95" x1="-220.673" y1="247.659" x2="221.585" y2="-0.927298" gradientUnits="userSpaceOnUse">
<stop stop-color="#FCD1CB"/>
<stop offset="1" stop-color="#F0F0F0"/>
</linearGradient>
</defs>
</svg>
