<svg width="121" height="120" viewBox="0 0 121 120" fill="none" xmlns="http://www.w3.org/2000/svg">
<path d="M11.6231 26.5641C10.4691 27.221 9.51019 28.1725 8.84433 29.3214C8.17848 30.4702 7.82959 31.7753 7.83331 33.1032V102.656C7.82912 103.952 8.16076 105.227 8.79591 106.357C9.43107 107.486 10.3481 108.432 11.4575 109.101C12.5669 109.771 13.8309 110.142 15.1263 110.178C16.4217 110.213 17.7042 109.913 18.8489 109.306C18.9497 109.252 19.0482 109.195 19.1442 109.132L38.8646 96.2297C39.1264 96.059 39.3415 95.8254 39.49 95.5503C39.6386 95.2753 39.7161 94.9674 39.7153 94.6547V10.8868C39.7163 10.5452 39.6239 10.2099 39.4482 9.91698C39.2725 9.62408 39.0202 9.38474 38.7184 9.22479C38.4166 9.06485 38.0768 8.99038 37.7358 9.00943C37.3948 9.02847 37.0654 9.14031 36.7833 9.33287L11.6231 26.5641ZM50.1052 9.21334C49.8225 9.02957 49.4955 8.92544 49.1585 8.91191C48.8216 8.89838 48.4873 8.97595 48.1908 9.13645C47.8943 9.29695 47.6465 9.53444 47.4736 9.82391C47.3007 10.1134 47.209 10.4441 47.2083 10.7813V94.5844C47.2076 94.8971 47.285 95.2049 47.4336 95.48C47.5822 95.7551 47.7972 95.9886 48.0591 96.1594L70.5591 110.789C70.842 110.974 71.1695 111.078 71.5069 111.092C71.8444 111.106 72.1793 111.028 72.4763 110.867C72.7733 110.706 73.0213 110.468 73.1941 110.178C73.367 109.888 73.4583 109.557 73.4583 109.219V25.4696C73.4592 25.1563 73.3816 24.8478 73.2325 24.5723C73.0835 24.2968 72.8678 24.063 72.6052 23.8922L50.1052 9.21334ZM109.208 10.8915C108.102 10.215 106.839 9.84002 105.544 9.80383C104.248 9.76764 102.966 10.0715 101.825 10.6852C101.724 10.7371 101.626 10.795 101.532 10.8586L81.8091 23.7493C81.5472 23.9201 81.3322 24.1536 81.1836 24.4287C81.035 24.7038 80.9576 25.0116 80.9583 25.3243V109.104C80.957 109.446 81.0493 109.782 81.2251 110.075C81.401 110.368 81.6536 110.608 81.9558 110.768C82.258 110.928 82.5982 111.002 82.9396 110.983C83.281 110.963 83.6105 110.851 83.8927 110.658L108.987 93.4407C110.155 92.7891 111.128 91.8371 111.804 90.6832C112.48 89.5293 112.836 88.2156 112.833 86.8782V17.5032C112.849 16.1823 112.523 14.8798 111.888 13.7216C111.253 12.5633 110.33 11.5885 109.208 10.8915Z" fill="white"/>
</svg>
