<svg width="121" height="120" viewBox="0 0 121 120" fill="none" xmlns="http://www.w3.org/2000/svg">
<path d="M82.6666 48.75C82.6666 47.7554 83.0617 46.8016 83.765 46.0984C84.4682 45.3951 85.4221 45 86.4166 45H93.9166C94.9112 45 95.865 45.3951 96.5683 46.0984C97.2715 46.8016 97.6666 47.7554 97.6666 48.75V56.25C97.6666 57.2446 97.2715 58.1984 96.5683 58.9016C95.865 59.6049 94.9112 60 93.9166 60H86.4166C85.4221 60 84.4682 59.6049 83.765 58.9016C83.0617 58.1984 82.6666 57.2446 82.6666 56.25V48.75Z" fill="white"/>
<path d="M31.5312 9C32.3849 9 33.2036 9.33912 33.8072 9.94275C34.4109 10.5464 34.75 11.3651 34.75 12.2188V15.4375H86.25V12.2188C86.25 11.3651 86.5891 10.5464 87.1927 9.94275C87.7964 9.33912 88.6151 9 89.4688 9C90.3224 9 91.1411 9.33912 91.7448 9.94275C92.3484 10.5464 92.6875 11.3651 92.6875 12.2188V15.4375H99.125C102.54 15.4375 105.814 16.794 108.229 19.2085C110.644 21.623 112 24.8978 112 28.3125V99.125C112 102.54 110.644 105.814 108.229 108.229C105.814 110.644 102.54 112 99.125 112H21.875C18.4603 112 15.1855 110.644 12.771 108.229C10.3565 105.814 9 102.54 9 99.125V28.3125C9 24.8978 10.3565 21.623 12.771 19.2085C15.1855 16.794 18.4603 15.4375 21.875 15.4375H28.3125V12.2188C28.3125 11.3651 28.6516 10.5464 29.2553 9.94275C29.8589 9.33912 30.6776 9 31.5312 9ZM15.4375 34.75V99.125C15.4375 100.832 16.1157 102.47 17.323 103.677C18.5303 104.884 20.1677 105.562 21.875 105.562H99.125C100.832 105.562 102.47 104.884 103.677 103.677C104.884 102.47 105.562 100.832 105.562 99.125V34.75H15.4375Z" fill="white"/>
</svg>
