<svg width="54" height="40" viewBox="0 0 54 40" fill="none" xmlns="http://www.w3.org/2000/svg">
<g clip-path="url(#clip0_444_223)">
<path d="M12.5299 39.803V19.3035L6.17243 13.4873L0.471497 10.2598V36.1854C0.471497 38.187 2.09326 39.803 4.08911 39.803H12.5299Z" fill="#BFBFBF"/>
<path d="M41.4701 39.8033H49.9109C51.9128 39.8033 53.5285 38.1813 53.5285 36.1856V10.2603L47.0713 13.957L41.4701 19.3038V39.8033Z" fill="#BFBFBF"/>
<path d="M12.5299 19.3038L11.6649 11.294L12.5299 3.62793L27 14.4806L41.47 3.62793L42.4377 10.8802L41.47 19.3038L27 30.1564L12.5299 19.3038Z" fill="#BFBFBF"/>
<path d="M41.4701 3.62771V19.3036L53.5285 10.2598V5.43641C53.5285 0.962838 48.4218 -1.58742 44.8466 1.09548L41.4701 3.62771Z" fill="#BFBFBF"/>
<path d="M0.471497 10.2599L6.0174 14.4195L12.5299 19.3037V3.6278L9.15336 1.09557C5.57201 -1.58753 0.471497 0.962932 0.471497 5.4363V10.2597V10.2599Z" fill="#BFBFBF"/>
</g>
<defs>
<clipPath id="clip0_444_223">
<rect width="53.06" height="40" fill="white" transform="translate(0.470001)"/>
</clipPath>
</defs>
</svg>
