<svg width="100" height="80" viewBox="0 0 100 80" fill="none" xmlns="http://www.w3.org/2000/svg">
<path d="M0 35V77.5C0 78.8813 1.11875 80 2.5 80H15V30H5C2.23906 30 0 32.2391 0 35ZM56.25 27.5H52.5V21.25C52.5 20.5594 51.9406 20 51.25 20H48.75C48.0594 20 47.5 20.5594 47.5 21.25V31.25C47.5 31.9406 48.0594 32.5 48.75 32.5H56.25C56.9406 32.5 57.5 31.9406 57.5 31.25V28.75C57.5 28.0594 56.9406 27.5 56.25 27.5ZM77.7734 17.5063L52.7734 0.839076C51.952 0.291938 50.987 0 50 0C49.013 0 48.048 0.291938 47.2266 0.839076L22.2266 17.5063C21.5418 17.9628 20.9803 18.5813 20.5919 19.3068C20.2035 20.0324 20.0002 20.8426 20 21.6656V80H40V57.5C40 56.1188 41.1188 55 42.5 55H57.5C58.8812 55 60 56.1188 60 57.5V80H80V21.6672C80 19.9953 79.1641 18.4328 77.7734 17.5063ZM50 40C43.0969 40 37.5 34.4031 37.5 27.5C37.5 20.5969 43.0969 15 50 15C56.9031 15 62.5 20.5969 62.5 27.5C62.5 34.4031 56.9031 40 50 40ZM95 30H85V80H97.5C98.8812 80 100 78.8813 100 77.5V35C100 32.2391 97.7609 30 95 30Z" fill="white"/>
</svg>
