<svg xmlns="http://www.w3.org/2000/svg" width="1em" height="1em" viewBox="0 0 24 24"><path fill="currentColor" d="M12 6q0 .633-.434 1.066q-.433.434-1.066.434q-.306 0-.571-.116t-.483-.336q-.715.2-1.222.725T7.564 9h12.36l-.866 5.5h-4.035v-1h3.175q.144-.865.28-1.75t.28-1.75H5.242q.145.865.28 1.75t.28 1.75h3.175v1H4.942L4.077 9h2.48q.155-1.013.81-1.783t1.652-1.07Q9 6.106 9 6.05v-.096q.017-.621.448-1.038q.43-.416 1.052-.416q.633 0 1.066.434T12 6M9.794 19h4.412l.517-5.327q.039-.27-.154-.471T14.108 13H9.892q-.269 0-.461.202q-.193.202-.154.471zm-.89 1l-.596-6.223q-.062-.702.413-1.24T9.898 12h4.204q.702 0 1.177.538t.413 1.239L15.096 20z"/></svg>
