<svg width="105" height="90" viewBox="0 0 105 90" fill="none" xmlns="http://www.w3.org/2000/svg">
<path d="M72.9974 64.5011C77.5987 61.9436 77.0024 52.0886 71.6699 42.4736C69.3824 38.3336 66.5699 34.9811 63.7574 32.6374C60.3944 35.1333 56.3205 36.4869 52.1324 36.4999C47.938 36.4906 43.8571 35.1369 40.4887 32.6374C37.6762 34.9811 34.8712 38.3374 32.5762 42.4736C27.2399 52.0849 26.6512 61.9436 31.2637 64.5011C33.3187 65.6711 35.4862 64.7936 37.7212 62.6411C37.3028 64.9602 37.0932 67.3121 37.0949 69.6686C37.0949 80.6861 41.3699 89.5886 46.6312 89.5886C49.8037 89.5886 51.3749 86.3449 52.1287 81.3836C52.8787 86.3111 54.4537 89.5886 57.6037 89.5886C62.8424 89.5886 67.1512 80.6824 67.1512 69.6686C67.1512 67.1936 66.9187 64.8311 66.5212 62.6449C68.7712 64.8011 70.9312 65.6936 72.9937 64.5086L72.9974 64.5011ZM52.1249 32.7499C54.2526 32.7817 56.3653 32.3899 58.3401 31.5975C60.3149 30.8051 62.1124 29.6279 63.6279 28.1343C65.1435 26.6406 66.3468 24.8605 67.168 22.8975C67.9891 20.9344 68.4115 18.8277 68.4108 16.6998C68.4101 14.5719 67.9861 12.4655 67.1636 10.503C66.3411 8.54053 65.1365 6.76125 63.6199 5.2687C62.1033 3.77615 60.305 2.60014 58.3296 1.80912C56.3543 1.01811 54.2413 0.627875 52.1137 0.661141C47.901 0.727008 43.8831 2.44713 40.9278 5.45006C37.9725 8.453 36.3168 12.4978 36.3183 16.7111C36.3198 20.9243 37.9783 24.9679 40.9357 27.9688C43.8931 30.9697 47.9122 32.687 52.1249 32.7499ZM84.3524 42.9274C87.7792 42.8272 91.032 41.3956 93.4205 38.9363C95.8089 36.477 97.145 33.1837 97.145 29.7555C97.145 26.3273 95.8089 23.034 93.4205 20.5747C91.032 18.1155 87.7792 16.6838 84.3524 16.5836C80.858 16.5841 77.507 17.9728 75.0364 20.444C72.5659 22.9153 71.1782 26.2667 71.1787 29.7611C71.1792 33.2555 72.5678 36.6066 75.0391 39.0772C77.5103 41.5477 80.8618 42.9354 84.3562 42.9349L84.3524 42.9274ZM100.402 50.9149C98.5199 47.5099 96.2174 44.7574 93.9074 42.8336C91.1443 44.881 87.7989 45.9913 84.3599 46.0024C81.5249 46.0024 78.8849 45.2261 76.5749 43.9399C78.4349 48.0386 79.5862 52.1899 79.7999 55.9024C80.1524 61.5874 78.3749 65.8024 74.8199 67.7711C74.058 68.1898 73.2297 68.4739 72.3712 68.6111C72.1574 70.0811 72.0112 71.6111 72.0112 73.2236C72.0112 82.2724 75.5174 89.5811 79.8412 89.5811C82.4437 89.5811 83.7412 86.9186 84.3562 82.8461C84.9674 86.8961 86.2612 89.5811 88.8562 89.5811C93.1499 89.5811 96.6937 82.2686 96.6937 73.2311C96.6937 71.1949 96.4949 69.2561 96.1687 67.4561C98.0137 69.2299 99.7912 69.9611 101.486 68.9861C105.262 66.8861 104.775 58.7936 100.399 50.9111L100.402 50.9149ZM19.8974 42.9274C22.5019 42.9259 25.0474 42.1522 27.2123 40.7042C29.3771 39.2562 31.0639 37.1988 32.0596 34.7921C33.0552 32.3855 33.315 29.7377 32.806 27.1835C32.297 24.6292 31.042 22.2833 29.1999 20.4421C27.3577 18.601 25.0111 17.3475 22.4565 16.8399C19.902 16.3323 17.2543 16.5936 14.8483 17.5906C12.4422 18.5876 10.3858 20.2757 8.93897 22.4413C7.49216 24.6069 6.71994 27.1529 6.71994 29.7574C6.72094 33.252 8.1096 36.6031 10.5806 39.0742C13.0517 41.5452 16.4029 42.9339 19.8974 42.9349V42.9274ZM29.4037 67.7599C23.4337 64.4411 22.8862 54.5449 27.6937 43.9324C25.3174 45.2814 22.6337 45.9956 19.9012 46.0061C16.3162 46.0061 13.0312 44.8061 10.3387 42.8336C8.03244 44.7536 5.7337 47.5061 3.84369 50.9074C-0.532555 58.7974 -1.01256 66.8899 2.76745 68.9824C4.45495 69.9499 6.2362 69.2261 8.06994 67.4599C7.73312 69.3639 7.56373 71.2938 7.56369 73.2274C7.56369 82.2724 11.0699 89.5774 15.3937 89.5774C17.9962 89.5774 19.2937 86.9149 19.9087 82.8461C20.5274 86.8961 21.8212 89.5811 24.4087 89.5811C28.7099 89.5811 32.2462 82.2686 32.2462 73.2311C32.2462 71.6074 32.0962 70.0736 31.8824 68.6036C31.0145 68.4668 30.1771 68.18 29.4074 67.7561L29.4037 67.7599Z" fill="white"/>
</svg>
